<?xml version="1.0" encoding="UTF-8"?>
<svg width="135px" height="135px" viewBox="0 0 135 135" version="1.1" xmlns="http://www.w3.org/2000/svg" xmlns:xlink="http://www.w3.org/1999/xlink">
    <!-- Generator: Sketch 42 (36781) - http://www.bohemiancoding.com/sketch -->
    <title>Artboard</title>
    <desc>Created with Sketch.</desc>
    <defs></defs>
    <g id="Page-3" stroke="none" stroke-width="1" fill="none" fill-rule="evenodd">
        <g id="Artboard">
            <path d="M6.17199495,53.11545 C5.83799495,52.48645 6.06799495,51.95045 6.21399495,51.42345 C11.6909949,31.65645 23.8559949,17.67945 42.5979949,9.39344998 C43.7819949,8.86944998 44.9199949,8.82244998 46.0519949,9.53644998 C58.2009949,17.19345 68.7589949,26.65945 77.9959949,37.62745 C78.0789949,37.72645 78.1299949,37.85145 78.3489949,38.22545 C52.7249949,36.17845 28.9319949,42.05845 6.17199495,53.11545 Z" id="leaf-6" stroke="#000000" fill="#FFFFFF"></path>
            <path d="M24.5885972,111.862102 C24.0575972,111.959102 23.9575972,111.515102 23.7405972,111.283102 C18.6465972,105.822102 14.1655972,99.9361019 10.9185972,93.1551019 C5.5545972,81.9531019 4.0025972,70.2001019 5.5935972,57.9531019 C5.7595972,56.6751019 6.5435972,56.0211019 7.5835972,55.4681019 C16.3165972,50.8231019 25.4915972,47.3151019 35.0375972,44.7571019 C38.7995972,43.7481019 42.5945972,42.8811019 46.4275972,42.1861019 C46.9775972,42.0861019 47.5355972,41.8721019 48.2595972,42.1041019 C33.6145972,63.1051019 26.9355972,86.7581019 24.5885972,111.862102 Z" id="leaf-5" stroke="#000000" fill="#FFFFFF"></path>
            <path d="M57.4496373,101.873 C65.8536373,111.127 75.4086373,119.045 85.9026373,126.215 C82.6306373,127.314 79.5086373,128.017 76.3376373,128.43 C59.2116373,130.658 43.6576373,126.726 29.7206373,116.468 C28.4746373,115.551 27.9506373,114.499 28.0036373,112.952 C28.4836373,98.824 31.4176373,85.189 36.1516373,71.91 C36.2646373,71.592 36.2776373,71.185 36.7526373,71 C42.0916373,82.329 49.0296373,92.6 57.4496373,101.873 Z" id="leaf-4" stroke="#000000" fill="#FFFFFF"></path>
            <path d="M124.17,91.023 C117.428,106.417 106.314,117.404 90.882,124.052 C89.51,124.643 88.397,124.57 87.118,123.755 C75.275,116.208 64.93,106.968 55.849,96.284 C55.624,96.02 55.428,95.731 55,95.163 C80.902,97.376 104.837,91.242 128.003,80 C126.732,83.908 125.691,87.549 124.17,91.023 Z" id="leaf-3" stroke="#000000" fill="#FFFFFF"></path>
            <path d="M109.373,21 C111.931,23.832 114.354,26.315 116.467,29.082 C126.777,42.585 130.691,57.846 129.022,74.651 C128.859,76.292 128.195,77.478 126.667,78.269 C114.29,84.676 101.189,88.929 87.52,91.506 C87.129,91.579 86.723,91.574 86,91.632 C100.761,70.372 107.489,46.642 109.373,21" id="leaf-2" stroke="#000000" fill="#FFFFFF"></path>
            <path d="M48,6.65827265 C67.462,1.49727265 85.42,3.64527265 101.946,14.9142727 C107.073,18.4102727 106.227,17.5372727 105.94,22.9232727 C105.235,36.1602727 102.391,48.9642727 97.851,61.4022727 C97.776,61.6072727 97.659,61.7952727 97.454,62.2072727 C86.504,38.8102727 69.305,21.1492727 48,6.65827265" id="leaf-1" stroke="#000000" fill="#FFFFFF"></path>
            <path d="M7.10542736e-15,-7.10542736e-15 L135,-7.10542736e-15 L135,135 L7.10542736e-15,135 L7.10542736e-15,-7.10542736e-15 Z M66.5,128 C100.465512,128 128,100.465512 128,66.5 C128,32.5344879 100.465512,5 66.5,5 C32.5344879,5 5,32.5344879 5,66.5 C5,100.465512 32.5344879,128 66.5,128 Z" id="Combined-Shape" fill="#000000"></path>
        </g>
    </g>
</svg>