<?xml version="1.0" encoding="UTF-8"?>
<svg width="52px" height="42px" viewBox="0 0 52 42" version="1.1" xmlns="http://www.w3.org/2000/svg" xmlns:xlink="http://www.w3.org/1999/xlink">
    <!-- Generator: Sketch 42 (36781) - http://www.bohemiancoding.com/sketch -->
    <title>Artboard</title>
    <desc>Created with Sketch.</desc>
    <defs></defs>
    <g id="Page-1" stroke="none" stroke-width="1" fill="none" fill-rule="evenodd">
        <g id="Artboard" stroke="#979797">
            <path d="M44,26 C45.6568542,26 47,24.6568542 47,23 C47,21.3431458 45.6568542,20 44,20" id="cameraShutter"></path>
            <path d="M16.14,13.07 L16.14,13.07 C16.14,12.7862184 16.0272682,12.5140597 15.8266043,12.3133957 C15.6259403,12.1127318 15.3537816,12 15.07,12 L15.07,12 C14.4790553,12 14,12.4790553 14,13.07 L14,13.07 C14,13.6609447 14.4790553,14.14 15.07,14.14 L15.07,14.14 C15.3537816,14.14 15.6259403,14.0272682 15.8266043,13.8266043 C16.0272682,13.6259403 16.14,13.3537816 16.14,13.07 L16.14,13.07 Z" id="cameraRedEye"></path>
            <path d="M10.84,11.94 L10.84,11.94 C10.8453406,11.4273279 10.6454156,10.9338146 10.2847653,10.5694075 C9.92411498,10.2050004 9.4326999,9.99997218 8.92,10 L8.92,10 C7.85961328,10 7,10.8596133 7,11.92 L7,11.92 C7,12.4292157 7.20228513,12.9175752 7.56235498,13.277645 C7.92242483,13.6377149 8.41078434,13.84 8.92,13.84 L8.92,13.84 C9.97262508,13.8400571 10.8290352,12.992568 10.84,11.94 L10.84,11.94 Z" id="cameraFlash"></path>
            <path d="M43.71,22.8500036 L43.71,22.8500036 C43.71,15.2008598 37.5091438,9.00000362 29.86,9.00000362 L29.86,9.00000362 C26.1850193,8.9973502 22.659648,10.455371 20.060106,13.0530375 C17.4605639,15.650704 15.999999,19.175022 16,22.8500036 L16,22.8500036 C15.999999,26.5249853 17.4605639,30.0493033 20.060106,32.6469698 C22.659648,35.2446363 26.1850193,36.702657 29.86,36.7000036 L29.86,36.7000036 C37.5091438,36.7000036 43.71,30.4991474 43.71,22.8500036 L43.71,22.8500036 Z" id="cameraGlassOuter" stroke-width="2"></path>
            <path d="M37.8927324,30.8927324 C35.7623193,33.0231456 32.8728589,34.2199993 29.8599997,34.2199993 C26.8471404,34.2199993 23.9576801,33.0231456 21.8272669,30.8927324 C19.6968537,28.7623193 18.5,25.8728589 18.5,22.8599997 C18.5,16.5860451 23.5860451,11.5 29.8599997,11.5 C36.1339542,11.5 41.2199993,16.5860451 41.2199993,22.8599997 C41.2199993,25.8728589 40.0231456,28.7623193 37.8927324,30.8927324 Z" id="cameraGlass" fill-rule="nonzero"></path>
            <path d="M36.64,22.82 L36.64,22.82 C36.64,19.053418 33.586582,16 29.82,16 L29.82,16 C26.053418,16 23,19.053418 23,22.82 L23,22.82 C23,26.586582 26.053418,29.64 29.82,29.64 L29.82,29.64 C31.6287765,29.64 33.3634701,28.9214663 34.6424682,27.6424682 C35.9214663,26.3634701 36.64,24.6287765 36.64,22.82 Z" id="cameraLens"></path>
            <path d="M29.7,18.0000107 C28.4544029,17.9973548 27.2589125,18.4903057 26.3772028,19.3701393 C25.4954932,20.249973 24.9999972,21.4444108 25,22.6900107 C25,25.2802262 27.0997845,27.3800107 29.69,27.3800107 C30.9355971,27.3826665 32.1310875,26.8897157 33.0127972,26.009882 C33.8945068,25.1300484 34.3900028,23.9356106 34.39,22.6900107 C34.39,20.0997952 32.2902155,18.0000107 29.7,18.0000107 Z" id="cameraFocus"></path>
            <polyline id="cameraController" stroke-linejoin="round" points="16.38 5.55000005 16.38 3.70000005 7 4.16000005 7 6.26000005"></polyline>
            <path d="M11.64,38.99 L11.64,18.13 C11.64,17.28 10.28,16 8.92,16 L1,16" id="cameraHandler"></path>
            <path d="M46.7152701,39.3602425 C42.7152701,39.5702425 11.7152701,39.3602425 11.7152701,39.3602425 C11.7152701,39.3602425 4.27527005,44.3602425 1.19527005,37.5502425 C1.10075034,37.3392596 1.0497341,37.1113871 1.04527005,36.8802425 C0.935270055,30.6902425 1.05527005,17.2702425 1.09527005,13.5002425 C1.10870876,12.0039886 1.69989052,10.5708207 2.74527005,9.50024247 C3.96872706,8.32702756 5.4525076,7.4600611 7.07527005,6.97024247 C9.42527005,6.75024247 17.5152701,6.33024247 20.2952701,6.12024247 C20.8814955,4.2563294 22.0009291,2.60499093 23.5152701,1.37024247 C23.8474595,1.12375204 24.2516705,0.993701543 24.6652701,1.00024247 L35.7752701,1.00024247 C35.9699208,0.996765376 36.1634273,1.03071388 36.3452701,1.10024247 C39.3452701,2.30024247 40.3452701,6.10024247 40.3452701,6.10024247 C41.7631277,5.98993062 43.1874124,5.98993062 44.6052701,6.10024247 C48.6052701,7.17024247 50.3552701,14.8402425 50.6052701,17.1802425 C51.1652701,24.0302425 51.0752701,33.4602425 51.0352701,35.8102425 C51.0388977,36.8776862 50.5244206,37.8805437 49.6552701,38.5002425 C48.7783488,39.0636381 47.7575759,39.3622315 46.7152701,39.3602425 L46.7152701,39.3602425 Z" id="cameraShape" stroke-width="2"></path>
        </g>
    </g>
</svg>