<svg xmlns="http://www.w3.org/2000/svg" viewBox="0 0 67.71 12.25"><title>Ресурс 11</title><g id="Слой_2" data-name="Слой 2"><g id="Слой_1-2" data-name="Слой 1"><path d="M0,12.25,2.62,0H4.26L6.88,12.25H5.25L4.69,9.16H2.2l-.58,3.09ZM2.42,7.94h2l-1-5.53Z"/><path d="M11.11,12.25,11.34,0H13l2.16,9.94L17.35,0H19l.23,12.25H17.87l-.13-8.9-2.08,8.9h-1l-2.06-8.9-.13,8.9Z"/><path d="M24.16,12.25V0H28.9V1.26h-3v4h2.47V6.53H25.86V11h3.07v1.23Z"/><path d="M33.34,12.25V0H35.8a4.08,4.08,0,0,1,2.73.76,3.15,3.15,0,0,1,.87,2.48q0,2.36-1.51,2.86l1.75,6.15H38L36.37,6.5H35.05v5.75Zm1.71-7h.64a2.32,2.32,0,0,0,1.59-.44,2.12,2.12,0,0,0,.48-1.59,2.33,2.33,0,0,0-.41-1.57,2.07,2.07,0,0,0-1.55-.45h-.75Z"/><path d="M44.3,12.25V0H46V12.25Z"/><path d="M51,12.25V0H52.7V5.77L55.51,0H57.1L54.67,5.4l2.82,6.85H55.83L53.37,6.18,52.7,7.42v4.82Z"/><path d="M60.83,12.25,63.45,0h1.65l2.62,12.25H66.08l-.56-3.09H63l-.58,3.09Zm2.42-4.31h2l-1-5.53Z"/></g></g></svg>