<svg xmlns="http://www.w3.org/2000/svg" viewBox="0 0 118.66 29.33"><title>Ресурс 5</title><g id="Слой_2" data-name="Слой 2"><g id="Слой_1-2" data-name="Слой 1"><path d="M0,29.33,6.26,0h3.95l6.26,29.33H12.58l-1.34-7.39h-6l-1.4,7.39ZM5.8,19h4.9L8.24,5.77Z"/><path d="M19.35,29.33,19.9,0h4l5.18,23.79L34.3,0h4l.55,29.33H35.54L35.22,8l-5,21.31h-2.3L23,8,22.7,29.33Z"/><path d="M43.36,29.33V0H54.71V3H47.44v9.69h5.91v2.92H47.44V26.39H54.8v2.94Z"/><path d="M58.11,29.33V0H64q4.46,0,6.54,1.82t2.08,5.94q0,5.66-3.63,6.85l4.19,14.72h-4L65.36,15.57H62.19V29.33Zm4.09-16.7h1.54a5.56,5.56,0,0,0,3.81-1.05q1.14-1.05,1.14-3.81A5.58,5.58,0,0,0,67.7,4q-1-1.08-3.71-1.08h-1.8Z"/><path d="M77.11,29.33V0h4V29.33Z"/><path d="M85.88,29.33V0H90V13.82L96.69,0h3.8l-5.8,12.93,6.74,16.4h-4L91.56,14.79l-1.59,3V29.33Z"/><path d="M102.19,29.33,108.45,0h3.95l6.26,29.33h-3.89l-1.34-7.39h-6l-1.4,7.39ZM108,19h4.9L110.43,5.77Z"/></g></g></svg>